<svg width="50" height="50" viewBox="0 0 50 50" fill="none" xmlns="http://www.w3.org/2000/svg">
<rect x="0.5" y="0.5" width="49" height="49" rx="24.5" fill="white"/>
<rect x="0.5" y="0.5" width="49" height="49" rx="24.5" stroke="#747775"/>
<path fill-rule="evenodd" clip-rule="evenodd" d="M34.6 25.2273C34.6 24.5182 34.5364 23.8364 34.4182 23.1818H25V27.05H30.3818C30.15 28.3 29.4455 29.3591 28.3864 30.0682V32.5773H31.6182C33.5091 30.8364 34.6 28.2727 34.6 25.2273Z" fill="#4285F4"/>
<path fill-rule="evenodd" clip-rule="evenodd" d="M24.9998 35C27.6998 35 29.9635 34.1045 31.618 32.5773L28.3862 30.0682C27.4907 30.6682 26.3453 31.0227 24.9998 31.0227C22.3953 31.0227 20.1907 29.2636 19.4044 26.9H16.0635V29.4909C17.7089 32.7591 21.0907 35 24.9998 35Z" fill="#34A853"/>
<path fill-rule="evenodd" clip-rule="evenodd" d="M19.4045 26.9C19.2045 26.3 19.0909 25.6591 19.0909 25C19.0909 24.3409 19.2045 23.7 19.4045 23.1V20.5091H16.0636C15.3864 21.8591 15 23.3864 15 25C15 26.6136 15.3864 28.1409 16.0636 29.4909L19.4045 26.9Z" fill="#FBBC05"/>
<path fill-rule="evenodd" clip-rule="evenodd" d="M24.9998 18.9773C26.468 18.9773 27.7862 19.4818 28.8226 20.4727L31.6907 17.6045C29.9589 15.9909 27.6953 15 24.9998 15C21.0907 15 17.7089 17.2409 16.0635 20.5091L19.4044 23.1C20.1907 20.7364 22.3953 18.9773 24.9998 18.9773Z" fill="#EA4335"/>
</svg>
